<?xml version="1.0" standalone="no"?><!DOCTYPE svg PUBLIC "-//W3C//DTD SVG 1.1//EN" "http://www.w3.org/Graphics/SVG/1.1/DTD/svg11.dtd"><svg t="1565535712897" class="icon" viewBox="0 0 1024 1024" version="1.1" xmlns="http://www.w3.org/2000/svg" p-id="2129" xmlns:xlink="http://www.w3.org/1999/xlink" width="48" height="48"><defs><style type="text/css"></style></defs><path d="M513.024 1024h-1.024c-17.92 0-34.816-7.168-47.104-20.48-9.728-10.24-97.28-102.912-184.832-219.648C162.304 625.664 102.4 499.2 102.4 409.088 102.4 183.296 286.208 0 512 0s409.6 183.296 409.6 409.088c0 54.784-20.992 121.856-62.976 199.68-39.936 74.752-100.352 161.792-179.712 258.048l-0.512 0.512-117.76 134.144c-11.776 14.336-29.184 22.528-47.616 22.528z m-1.024-423.936c105.984 0 191.488-86.016 191.488-191.488S617.984 217.6 512 217.6 320 303.104 320 409.088s86.016 190.976 192 190.976z" p-id="2130" fill="#00a2ff"></path></svg>