<?xml version="1.0" standalone="no"?><!DOCTYPE svg PUBLIC "-//W3C//DTD SVG 1.1//EN" "http://www.w3.org/Graphics/SVG/1.1/DTD/svg11.dtd"><svg t="1565531107114" class="icon" viewBox="0 0 1024 1024" version="1.1" xmlns="http://www.w3.org/2000/svg" p-id="18336" xmlns:xlink="http://www.w3.org/1999/xlink" width="48" height="48"><defs><style type="text/css"></style></defs><path d="M576.017524 735.681432V384.188033c0-40.962947 63.99143-40.962947 63.99143 0v351.493399c0.001023 40.966017-63.99143 40.966017-63.99143 0m-192.035688 0V384.188033c0-40.962947 64.022129-40.962947 64.022129 0v351.493399c0 40.966017-64.022129 40.966017-64.022129 0m544.082696-511.269359H768.053212v-63.931055c0-52.930513-43.031049-95.844905-95.025237-95.844905H351.984075c-53.014424 0-96.015797 42.915415-96.015797 95.844905v63.931055H95.956957c-41.022299 0-41.022299 63.874773 0 63.874773h832.107575c40.992623 0 40.992623-63.874773 0-63.874773m-608.074125-63.933102c0-16.975627 14.992459-31.969109 31.993668-31.969109h321.042877c17.001209 0 31.004131 12.987802 31.004131 31.969109v63.932078H319.990407v-63.932078m416.040484 798.88594H287.961946c-52.983725 0-95.985098-42.912345-95.985098-95.840812V384.188033c0-18.98233 14.993482-31.968086 31.993668-31.968086 17.005302 0 31.996738 12.985756 31.996738 31.968086v479.335042c0 16.942881 15.023158 31.93227 31.993668 31.93227h448.067922c17.000186 0 32.023344-14.989389 32.023345-31.93227V385.17757c0-41.951461 63.99143-41.951461 63.991429 0v478.346529c0.002047 52.928466-42.999326 95.840812-96.012727 95.840812m0 0z" p-id="18337" fill="#ffffff"></path></svg>