<?xml version="1.0" standalone="no"?><!DOCTYPE svg PUBLIC "-//W3C//DTD SVG 1.1//EN" "http://www.w3.org/Graphics/SVG/1.1/DTD/svg11.dtd"><svg t="1567613348433" class="icon" viewBox="0 0 1024 1024" version="1.1" xmlns="http://www.w3.org/2000/svg" p-id="2039" width="128" height="128" xmlns:xlink="http://www.w3.org/1999/xlink"><defs><style type="text/css"></style></defs><path d="M519.620465 0c-103.924093 0-188.511256 82.467721-192.083349 185.820279H85.015814A48.91386 48.91386 0 0 0 36.101953 234.686512a48.91386 48.91386 0 0 0 48.913861 48.866232h54.010046V831.345116c0 102.852465 69.822512 186.844279 155.909954 186.844279h439.200744c86.087442 0 155.909953-83.491721 155.909954-186.844279V284.100465h48.91386a48.91386 48.91386 0 0 0 48.913861-48.890046 48.91386 48.91386 0 0 0-48.913861-48.866233h-227.756651A191.559442 191.559442 0 0 0 519.620465 0z m-107.234232 177.080558c3.548279-49.771163 46.627721-88.540279 99.851907-88.540279 53.224186 0 96.327442 38.745302 99.351813 88.540279h-199.20372z m-111.997024 752.044651c-30.981953 0-65.083535-39.15014-65.083535-95.041488V287.744h575.488v546.839814c0 55.915163-34.077767 95.041488-65.059721 95.041488H300.389209v-0.500093z" fill="#999999" p-id="2040"></path><path d="M368.116093 796.814884c24.361674 0 44.27014-21.670698 44.27014-48.818605v-278.623256c0-27.147907-19.908465-48.818605-44.27014-48.818604-24.33786 0-44.27014 21.670698-44.27014 48.818604v278.623256c0 27.147907 19.360744 48.818605 44.293954 48.818605z m154.933581 0c24.361674 0 44.293953-21.670698 44.293954-48.818605v-278.623256c0-27.147907-19.932279-48.818605-44.293954-48.818604-24.33786 0-44.27014 21.670698-44.270139 48.818604v278.623256c0 27.147907 19.932279 48.818605 44.293953 48.818605z m132.810419 0c24.33786 0 44.27014-21.670698 44.27014-48.818605v-278.623256c0-27.147907-19.932279-48.818605-44.27014-48.818604s-44.27014 21.670698-44.27014 48.818604v278.623256c0 27.147907 19.360744 48.818605 44.27014 48.818605z" fill="#999999" p-id="2041"></path></svg>