<?xml version="1.0" standalone="no"?><!DOCTYPE svg PUBLIC "-//W3C//DTD SVG 1.1//EN" "http://www.w3.org/Graphics/SVG/1.1/DTD/svg11.dtd"><svg t="1564583937168" class="icon" viewBox="0 0 1024 1024" version="1.1" xmlns="http://www.w3.org/2000/svg" p-id="708" xmlns:xlink="http://www.w3.org/1999/xlink" width="60" height="60"><defs><style type="text/css"></style></defs><path d="M386.9 927H236.7c-76.5 0-138.8-62.3-138.8-138.8V638.1c0-13.8 11.2-25 25-25s25 11.2 25 25v150.1c0 48.9 39.8 88.8 88.8 88.8h150.1c13.8 0 25 11.2 25 25s-11.1 25-24.9 25zM122.9 411.9c-13.8 0-25-11.2-25-25V236.7c0-76.5 62.3-138.8 138.8-138.8h150.1c13.8 0 25 11.2 25 25s-11.2 25-25 25H236.7c-48.9 0-88.8 39.8-88.8 88.8v150.1c0 13.9-11.1 25.1-25 25.1z" p-id="709" fill="#ffffff"></path><path d="M902 411.9c-13.8 0-25-11.2-25-25V236.7c0-48.9-39.8-88.8-88.8-88.8H638.1c-13.8 0-25-11.2-25-25s11.2-25 25-25h150.1c76.5 0 138.8 62.3 138.8 138.8v150.1c0 13.9-11.2 25.1-25 25.1zM788.2 927H638.1c-13.8 0-25-11.2-25-25s11.2-25 25-25h150.1c48.9 0 88.8-39.8 88.8-88.8V638.1c0-13.8 11.2-25 25-25s25 11.2 25 25v150.1c0 76.5-62.3 138.8-138.8 138.8z" p-id="710" fill="#ffffff"></path><path d="M752 536.1H272.9c-13.8 0-25-11.2-25-25s11.2-25 25-25H752c13.8 0 25 11.2 25 25s-11.2 25-25 25z" p-id="711" fill="#ffffff"></path></svg>